<?xml version="1.0" encoding="UTF-8"?>
<svg width="564px" height="135px" viewBox="0 0 564 135" version="1.1" xmlns="http://www.w3.org/2000/svg" xmlns:xlink="http://www.w3.org/1999/xlink">
    <!-- Generator: Sketch 52.6 (67491) - http://www.bohemiancoding.com/sketch -->
    <title>Artboard</title>
    <desc>Created with Sketch.</desc>
    <defs>
        <path d="M61.61,35.7 C61.61,42.6067012 59.4633548,48.3233107 55.17,52.85 C50.8766452,57.3766893 45.1833688,60.5266578 38.09,62.3 L66.79,105 L52.23,105 L25.77,63.7 L12.75,63.7 L12.75,105 L0.71,105 L0.71,8.54 L25.35,8.54 C37.2967264,8.54 46.3266361,10.8266438 52.44,15.4 C58.5533639,19.9733562 61.61,26.7399552 61.61,35.7 Z M48.73,35.7 C48.73,29.5399692 46.9566844,25.1066802 43.41,22.4 C39.8633156,19.6933198 34.3100378,18.34 26.75,18.34 L12.75,18.34 L12.75,54.18 L26.89,54.18 C34.0767026,54.18 39.5133149,52.7100147 43.2,49.77 C46.8866851,46.8299853 48.73,42.1400322 48.73,35.7 Z M93.81,72.24 C94.0900014,80.3600406 96.2133135,86.4733128 100.18,90.58 C104.146686,94.6866872 109.163303,96.74 115.23,96.74 C118.870018,96.74 122.206651,96.2033387 125.24,95.13 C128.273348,94.0566613 131.516649,92.4000112 134.97,90.16 L140.43,98 C136.976649,100.70668 133.033355,102.806659 128.6,104.3 C124.166644,105.793341 119.710022,106.54 115.23,106.54 C104.589947,106.54 96.3066963,103.063368 90.38,96.11 C84.4533037,89.1566319 81.49,79.846725 81.49,68.18 C81.49,60.8066298 82.7966536,54.2033625 85.41,48.37 C88.0233464,42.5366375 91.7566424,37.9633499 96.61,34.65 C101.463358,31.3366501 107.109968,29.68 113.55,29.68 C122.88338,29.68 130.233306,32.9233009 135.6,39.41 C140.966693,45.8966991 143.65,54.739944 143.65,65.94 C143.65,68.0866774 143.556668,70.1866564 143.37,72.24 L93.81,72.24 Z M113.69,39.34 C107.996638,39.34 103.376684,41.3699797 99.83,45.43 C96.2833156,49.4900203 94.276669,55.4399608 93.81,63.28 L132.17,63.28 C132.076666,55.5332946 130.396683,49.6066872 127.13,45.5 C123.863317,41.3933128 119.383362,39.34 113.69,39.34 Z M193.63,96.88 C199.230028,96.88 203.663317,95.8066774 206.93,93.66 C210.196683,91.5133226 211.83,88.6666844 211.83,85.12 C211.83,82.6933212 211.410004,80.7100077 210.57,79.17 C209.729996,77.6299923 208.050013,76.2300063 205.53,74.97 C203.009987,73.7099937 199.183359,72.4266732 194.05,71.12 C185.46329,68.9733226 179.116687,66.3833485 175.01,63.35 C170.903313,60.3166515 168.85,55.8133632 168.85,49.84 C168.85,43.6799692 171.416641,38.7800182 176.55,35.14 C181.683359,31.4999818 188.449958,29.68 196.85,29.68 C207.116718,29.68 216.076628,32.3866396 223.73,37.8 L218.41,45.92 C215.329985,43.7733226 212.110017,42.1166725 208.75,40.95 C205.389983,39.7833275 201.516689,39.2 197.13,39.2 C186.489947,39.2 181.17,42.4199678 181.17,48.86 C181.17,51.1000112 181.753328,52.919993 182.92,54.32 C184.086673,55.720007 185.999987,56.9566613 188.66,58.03 C191.320013,59.1033387 195.309973,60.3866592 200.63,61.88 C208.656707,64.0266774 214.653313,66.7566501 218.62,70.07 C222.586687,73.3833499 224.57,78.2133016 224.57,84.56 C224.57,91.9333702 221.583363,97.4399818 215.61,101.08 C209.636637,104.720018 202.310043,106.54 193.63,106.54 C182.056609,106.54 172.443372,103.2267 164.79,96.6 L171.37,88.9 C174.356682,91.3266788 177.763314,93.2633261 181.59,94.71 C185.416686,96.1566739 189.429979,96.88 193.63,96.88 Z M264.19,41.44 C267.083348,37.706648 270.629979,34.8133436 274.83,32.76 C279.030021,30.7066564 283.369978,29.68 287.85,29.68 C301.663402,29.68 308.57,36.9599272 308.57,51.52 L308.57,105 L296.81,105 L296.81,51.66 C296.81,47.2733114 295.783344,44.0766767 293.73,42.07 C291.676656,40.0633233 288.410022,39.06 283.93,39.06 C280.103314,39.06 276.416684,40.2733212 272.87,42.7 C269.323316,45.1266788 266.430011,47.973317 264.19,51.24 L264.19,105 L252.43,105 L252.43,1.68 L264.19,0.42 L264.19,41.44 Z M453.47,29.68 C471.296756,29.68 480.21,42.4665388 480.21,68.04 C480.21,79.706725 477.783358,89.039965 472.93,96.04 C468.076642,103.040035 461.030046,106.54 451.79,106.54 C443.763293,106.54 437.230025,103.740028 432.19,98.14 L432.19,133.28 L420.43,134.68 L420.43,31.22 L430.51,31.22 L431.49,41.58 C434.19668,37.7533142 437.439981,34.8133436 441.22,32.76 C445.000019,30.7066564 449.083311,29.68 453.47,29.68 Z M450.67,39.2 C446.936648,39.2 443.506682,40.3199888 440.38,42.56 C437.253318,44.8000112 434.523345,47.5999832 432.19,50.96 L432.19,87.5 C434.15001,90.3933478 436.599985,92.6566585 439.54,94.29 C442.480015,95.9233415 445.676649,96.74 449.13,96.74 C455.290031,96.74 459.886651,94.3833569 462.92,89.67 C465.953349,84.9566431 467.47,77.7467152 467.47,68.04 C467.47,58.3332848 466.11668,51.1000238 463.41,46.34 C460.70332,41.5799762 456.456696,39.2 450.67,39.2 Z M513.95,72.24 C514.230001,80.3600406 516.353314,86.4733128 520.32,90.58 C524.286687,94.6866872 529.303303,96.74 535.37,96.74 C539.010018,96.74 542.346652,96.2033387 545.38,95.13 C548.413349,94.0566613 551.656649,92.4000112 555.11,90.16 L560.57,98 C557.116649,100.70668 553.173356,102.806659 548.74,104.3 C544.306645,105.793341 539.850022,106.54 535.37,106.54 C524.729947,106.54 516.446696,103.063368 510.52,96.11 C504.593304,89.1566319 501.63,79.846725 501.63,68.18 C501.63,60.8066298 502.936654,54.2033625 505.55,48.37 C508.163346,42.5366375 511.896642,37.9633499 516.75,34.65 C521.603358,31.3366501 527.249968,29.68 533.69,29.68 C543.02338,29.68 550.373307,32.9233009 555.74,39.41 C561.106694,45.8966991 563.79,54.739944 563.79,65.94 C563.79,68.0866774 563.696668,70.1866564 563.51,72.24 L513.95,72.24 Z M533.83,39.34 C528.136638,39.34 523.516684,41.3699797 519.97,45.43 C516.423316,49.4900203 514.416669,55.4399608 513.95,63.28 L552.31,63.28 C552.216666,55.5332946 550.536683,49.6066872 547.27,45.5 C544.003317,41.3933128 539.523362,39.34 533.83,39.34 Z" id="path-1"></path>
    </defs>
    <g id="Artboard" stroke="none" stroke-width="1" fill="none" fill-rule="evenodd">
        <g id="Resh-pe">
            <use fill="#040404" xlink:href="#path-1"></use>
            <use fill="#000000" xlink:href="#path-1"></use>
        </g>
        <g id="Group" transform="translate(317.000000, 30.000000)">
            <polygon id="Polygon" fill-opacity="0.209890172" fill="#E10098" fill-rule="nonzero" transform="translate(46.867105, 47.838477) rotate(28.000000) translate(-46.867105, -47.838477) " points="46.8671054 20.3384767 69.3837659 34.0884767 69.3837659 61.5884767 46.8671054 75.3384767 24.3504449 61.5884767 24.3504449 34.0884767"></polygon>
            <path d="M6,69 L48,3" id="Line" stroke="#E10098" stroke-width="2.5" stroke-linecap="square" fill-rule="nonzero"></path>
            <path d="M47,72 L89,6" id="Line" stroke="#E10098" stroke-width="2.5" stroke-linecap="square" fill-rule="nonzero" transform="translate(68.000000, 39.000000) scale(-1, 1) translate(-68.000000, -39.000000) "></path>
            <path d="M7,72 L88,72" id="Line" stroke="#E10098" stroke-width="2.5" stroke-linecap="square" fill-rule="nonzero" transform="translate(47.500000, 72.000000) scale(-1, 1) translate(-47.500000, -72.000000) "></path>
            <path d="M0.734182716,74.249207 C-0.778275001,71.6181608 0.119746768,68.2623952 2.750793,66.7341827 C5.38183924,65.221725 8.7376048,66.1197468 10.2658173,68.750793 C11.778275,71.3818392 10.8802532,74.7376048 8.249207,76.2658173 C5.61816076,77.778275 2.24664043,76.8802532 0.734182716,74.249207" id="Path" fill="#E10098" fill-rule="nonzero"></path>
            <path d="M41.7341827,8.249207 C40.221725,5.61816076 41.1197468,2.2623952 43.750793,0.734182716 C46.3818392,-0.778275001 49.7376048,0.119746768 51.2658173,2.750793 C52.778275,5.38183924 51.8802532,8.7376048 49.249207,10.2658173 C46.6181608,11.778275 43.2466404,10.8802532 41.7341827,8.249207" id="Path" fill="#E10098" fill-rule="nonzero"></path>
            <path d="M83.7341827,74.249207 C82.221725,71.6181608 83.1197468,68.2623952 85.750793,66.7341827 C88.3818392,65.221725 91.7376048,66.1197468 93.2658173,68.750793 C94.778275,71.3818392 93.8802532,74.7376048 91.249207,76.2658173 C88.6181608,77.778275 85.2466404,76.8802532 83.7341827,74.249207" id="Path" fill="#E10098" fill-rule="nonzero"></path>
            <g id="graphql-icon" transform="translate(47.284808, 48.415095) rotate(29.000000) translate(-47.284808, -48.415095) translate(17.784808, 15.415095)" fill="#E10098">
                <polygon id="Shape" fill-rule="nonzero" points="30.4806433 62.8412765 3.85978993 47.2624749 5.23893656 44.8412765 31.8597899 60.4200781"></polygon>
                <polygon id="Path" points="5.762994 22.5333943 4.38384736 20.1123417 31.0047007 4.5333943 32.3838474 6.95461535"></polygon>
                <polygon id="Shape" fill-rule="nonzero" points="51.0546736 17.3945573 54.0546736 17.3945573 54.0546736 48.3945573 51.0546736 48.3945573"></polygon>
                <polygon id="Path" points="29.6296692 60.828591 28.4426851 58.8032813 51.255701 45.828591 52.4426851 47.8537393"></polygon>
                <path d="M57.4999033,49.4623377 C55.9022912,52.2342989 52.3409474,53.1804174 49.561768,51.5869547 C46.7825885,49.9934919 45.8340063,46.441398 47.4316184,43.6694368 C49.0292306,40.8974756 52.5905743,39.9513571 55.3697538,41.5448198 C58.1655751,43.1548811 59.1141573,46.6903765 57.4999033,49.4623377 M11.1358674,22.7552386 C9.53825526,25.5271998 5.97691151,26.4733183 3.19773204,24.8798556 C0.418552569,23.2863929 -0.530029645,19.7342989 1.0675825,16.9623377 C2.66519465,14.1903765 6.2265384,13.244258 9.00571787,14.8377208 C11.7848973,16.447782 12.7334796,19.9832774 11.1358674,22.7552386 M11.1358674,22.7552386 C9.53825526,25.5271998 5.97691151,26.4733183 3.19773204,24.8798556 C0.418552569,23.2863929 -0.530029645,19.7342989 1.0675825,16.9623377 C2.66519465,14.1903765 6.2265384,13.244258 9.00571787,14.8377208 C11.7848973,16.447782 12.7334796,19.9832774 11.1358674,22.7552386 M1.0842243,49.4623377 C-0.513387852,46.6903765 0.435194362,43.1548811 3.21437383,41.5448198 C5.9935533,39.9513571 9.53825526,40.8974756 11.1525092,43.6694368 C12.7501213,46.441398 11.8015391,49.9768934 9.02235967,51.5869547 C6.2265384,53.1804174 2.68183645,52.2342989 1.0842243,49.4623377 M47.4482602,22.7552386 C45.8506481,19.9832774 46.7992303,16.447782 49.5784098,14.8377208 C52.3575892,13.244258 55.9022912,14.1903765 57.5165451,16.9623377 C59.1141573,19.7342989 58.1655751,23.2697943 55.3863956,24.8798556 C52.6072161,26.4733183 49.0458724,25.5271998 47.4482602,22.7552386 M29.2920638,65.7123377 C26.0801977,65.7123377 23.484078,63.1229608 23.484078,59.9194368 C23.484078,56.7159128 26.0801977,54.1265359 29.2920638,54.1265359 C32.5039299,54.1265359 35.1000497,56.7159128 35.1000497,59.9194368 C35.1000497,63.1063622 32.5039299,65.7123377 29.2920638,65.7123377 M29.2920638,12.2981395 C26.0801977,12.2981395 23.484078,9.70876263 23.484078,6.50523863 C23.484078,3.30171462 26.0801977,0.712337708 29.2920638,0.712337708 C32.5039299,0.712337708 35.1000497,3.30171462 35.1000497,6.50523863 C35.1000497,9.70876263 32.5039299,12.2981395 29.2920638,12.2981395" id="Shape" fill-rule="nonzero"></path>
            </g>
        </g>
    </g>
</svg>